solid BDAA
facet normal 0 0 -1
  outer loop
    vertex 1631.320434570313 -3117.48583984375 0
    vertex -2368.679443359375 -6117.48583984375 0
    vertex -2368.679443359375 -3117.48583984375 0
  endloop
endfacet
facet normal 0 0 -1
  outer loop
    vertex -2368.679443359375 -6117.48583984375 0
    vertex 1631.320434570313 -3117.48583984375 0
    vertex 1631.320434570313 -6117.48583984375 0
  endloop
endfacet
facet normal 0 1 0
  outer loop
    vertex -2368.679443359375 -3117.48583984375 2950
    vertex 1631.320434570313 -3117.48583984375 0
    vertex -2368.679443359375 -3117.48583984375 0
  endloop
endfacet
facet normal 0 1 0
  outer loop
    vertex 1631.320434570313 -3117.48583984375 0
    vertex -2368.679443359375 -3117.48583984375 2950
    vertex 1631.320434570313 -3117.48583984375 2950
  endloop
endfacet
facet normal 1 0 0
  outer loop
    vertex 1631.320434570313 -3117.48583984375 0
    vertex 1631.320434570313 -6117.48583984375 2950
    vertex 1631.320434570313 -6117.48583984375 0
  endloop
endfacet
facet normal 1 0 0
  outer loop
    vertex 1631.320434570313 -6117.48583984375 2950
    vertex 1631.320434570313 -3117.48583984375 0
    vertex 1631.320434570313 -3117.48583984375 2950
  endloop
endfacet
facet normal -0 -1 -0
  outer loop
    vertex 1631.320434570313 -6117.48583984375 2950
    vertex -2368.679443359375 -6117.48583984375 0
    vertex 1631.320434570313 -6117.48583984375 0
  endloop
endfacet
facet normal -0 -1 -0
  outer loop
    vertex -2368.679443359375 -6117.48583984375 0
    vertex 1631.320434570313 -6117.48583984375 2950
    vertex -2368.679443359375 -6117.48583984375 2950
  endloop
endfacet
facet normal 0 0 1
  outer loop
    vertex 1531.320434570313 -6017.48583984375 250
    vertex -2268.679443359375 -3217.48583984375 250
    vertex -2268.679443359375 -6017.48583984375 250
  endloop
endfacet
facet normal 0 0 1
  outer loop
    vertex -2268.679443359375 -3217.48583984375 250
    vertex 1531.320434570313 -6017.48583984375 250
    vertex 1531.320434570313 -3217.48583984375 250
  endloop
endfacet
facet normal 1 0 0
  outer loop
    vertex -2268.679443359375 -3217.48583984375 250
    vertex -2268.679443359375 -6017.48583984375 2950
    vertex -2268.679443359375 -6017.48583984375 250
  endloop
endfacet
facet normal 1 0 0
  outer loop
    vertex -2268.679443359375 -6017.48583984375 2950
    vertex -2268.679443359375 -3217.48583984375 250
    vertex -2268.679443359375 -3217.48583984375 2950
  endloop
endfacet
facet normal 0 1 0
  outer loop
    vertex -2268.679443359375 -6017.48583984375 2950
    vertex 1531.320434570313 -6017.48583984375 250
    vertex -2268.679443359375 -6017.48583984375 250
  endloop
endfacet
facet normal 0 1 0
  outer loop
    vertex 1531.320434570313 -6017.48583984375 250
    vertex -2268.679443359375 -6017.48583984375 2950
    vertex 1531.320434570313 -6017.48583984375 2950
  endloop
endfacet
facet normal -1 0 0
  outer loop
    vertex -2368.679443359375 -3117.48583984375 2950
    vertex -2368.679443359375 -6117.48583984375 0
    vertex -2368.679443359375 -6117.48583984375 2950
  endloop
endfacet
facet normal -1 0 0
  outer loop
    vertex -2368.679443359375 -6117.48583984375 0
    vertex -2368.679443359375 -3117.48583984375 2950
    vertex -2368.679443359375 -3117.48583984375 0
  endloop
endfacet
facet normal -1 -0 -0
  outer loop
    vertex 1531.320434570313 -3217.48583984375 2950
    vertex 1531.320434570313 -6017.48583984375 250
    vertex 1531.320434570313 -6017.48583984375 2950
  endloop
endfacet
facet normal -1 -0 -0
  outer loop
    vertex 1531.320434570313 -6017.48583984375 250
    vertex 1531.320434570313 -3217.48583984375 2950
    vertex 1531.320434570313 -3217.48583984375 250
  endloop
endfacet
facet normal 0 -1 0
  outer loop
    vertex 1531.320434570313 -3217.48583984375 2950
    vertex -2268.679443359375 -3217.48583984375 250
    vertex 1531.320434570313 -3217.48583984375 250
  endloop
endfacet
facet normal 0 -1 0
  outer loop
    vertex -2268.679443359375 -3217.48583984375 250
    vertex 1531.320434570313 -3217.48583984375 2950
    vertex -2268.679443359375 -3217.48583984375 2950
  endloop
endfacet
facet normal 0 0 1
  outer loop
    vertex -2368.679443359375 -6117.48583984375 2950
    vertex -2268.679443359375 -6017.48583984375 2950
    vertex -2368.679443359375 -3117.48583984375 2950
  endloop
endfacet
facet normal 0 0 1
  outer loop
    vertex -2268.679443359375 -6017.48583984375 2950
    vertex -2368.679443359375 -6117.48583984375 2950
    vertex 1631.320434570313 -6117.48583984375 2950
  endloop
endfacet
facet normal 0 0 1
  outer loop
    vertex -2268.679443359375 -6017.48583984375 2950
    vertex 1631.320434570313 -6117.48583984375 2950
    vertex 1531.320434570313 -6017.48583984375 2950
  endloop
endfacet
facet normal 0 0 1
  outer loop
    vertex 1531.320434570313 -6017.48583984375 2950
    vertex 1631.320434570313 -6117.48583984375 2950
    vertex 1531.320434570313 -3217.48583984375 2950
  endloop
endfacet
facet normal 0 0 1
  outer loop
    vertex -2368.679443359375 -3117.48583984375 2950
    vertex -2268.679443359375 -3217.48583984375 2950
    vertex 1631.320434570313 -3117.48583984375 2950
  endloop
endfacet
facet normal 0 0 1
  outer loop
    vertex -2268.679443359375 -3217.48583984375 2950
    vertex -2368.679443359375 -3117.48583984375 2950
    vertex -2268.679443359375 -6017.48583984375 2950
  endloop
endfacet
facet normal 0 0 1
  outer loop
    vertex 1631.320434570313 -3117.48583984375 2950
    vertex -2268.679443359375 -3217.48583984375 2950
    vertex 1531.320434570313 -3217.48583984375 2950
  endloop
endfacet
facet normal 0 0 1
  outer loop
    vertex 1631.320434570313 -3117.48583984375 2950
    vertex 1531.320434570313 -3217.48583984375 2950
    vertex 1631.320434570313 -6117.48583984375 2950
  endloop
endfacet
endsolid BDAA
