solid 1511
facet normal 0 1 0
  outer loop
    vertex -2268.679443359375 -11369.4853515625 2950
    vertex 1531.320434570313 -11369.4853515625 250
    vertex -2268.679443359375 -11369.4853515625 250
  endloop
endfacet
facet normal 0 1 0
  outer loop
    vertex 1531.320434570313 -11369.4853515625 250
    vertex -2268.679443359375 -11369.4853515625 2950
    vertex 1531.320434570313 -11369.4853515625 2950
  endloop
endfacet
facet normal -1 0 0
  outer loop
    vertex 1531.320434570313 -8569.4853515625 2950
    vertex 1531.320434570313 -11369.4853515625 250
    vertex 1531.320434570313 -11369.4853515625 2950
  endloop
endfacet
facet normal -1 0 0
  outer loop
    vertex 1531.320434570313 -11369.4853515625 250
    vertex 1531.320434570313 -8569.4853515625 2950
    vertex 1531.320434570313 -8569.4853515625 250
  endloop
endfacet
facet normal 1 0 0
  outer loop
    vertex -2268.679443359375 -8569.4853515625 250
    vertex -2268.679443359375 -11369.4853515625 2950
    vertex -2268.679443359375 -11369.4853515625 250
  endloop
endfacet
facet normal 1 0 0
  outer loop
    vertex -2268.679443359375 -11369.4853515625 2950
    vertex -2268.679443359375 -8569.4853515625 250
    vertex -2268.679443359375 -8569.4853515625 2950
  endloop
endfacet
facet normal 0 -1 0
  outer loop
    vertex 1531.320434570313 -8569.4853515625 2950
    vertex -2268.679443359375 -8569.4853515625 250
    vertex 1531.320434570313 -8569.4853515625 250
  endloop
endfacet
facet normal 0 -1 0
  outer loop
    vertex -2268.679443359375 -8569.4853515625 250
    vertex 1531.320434570313 -8569.4853515625 2950
    vertex -2268.679443359375 -8569.4853515625 2950
  endloop
endfacet
facet normal 0 0 1
  outer loop
    vertex 1531.320434570313 -11369.4853515625 250
    vertex -2268.679443359375 -8569.4853515625 250
    vertex -2268.679443359375 -11369.4853515625 250
  endloop
endfacet
facet normal 0 0 1
  outer loop
    vertex -2268.679443359375 -8569.4853515625 250
    vertex 1531.320434570313 -11369.4853515625 250
    vertex 1531.320434570313 -8569.4853515625 250
  endloop
endfacet
facet normal 0 0 -1
  outer loop
    vertex 1531.320434570313 -8569.4853515625 2950
    vertex -2268.679443359375 -11369.4853515625 2950
    vertex -2268.679443359375 -8569.4853515625 2950
  endloop
endfacet
facet normal 0 0 -1
  outer loop
    vertex -2268.679443359375 -11369.4853515625 2950
    vertex 1531.320434570313 -8569.4853515625 2950
    vertex 1531.320434570313 -11369.4853515625 2950
  endloop
endfacet
facet normal -0 -1 -0
  outer loop
    vertex 1631.320434570313 -11469.4853515625 3250
    vertex -2368.679443359375 -11469.4853515625 0
    vertex 1631.320434570313 -11469.4853515625 0
  endloop
endfacet
facet normal -0 -1 -0
  outer loop
    vertex -2368.679443359375 -11469.4853515625 0
    vertex 1631.320434570313 -11469.4853515625 3250
    vertex -2368.679443359375 -11469.4853515625 3250
  endloop
endfacet
facet normal 0 0 -1
  outer loop
    vertex 1631.320434570313 -8469.4853515625 0
    vertex -2368.679443359375 -11469.4853515625 0
    vertex -2368.679443359375 -8469.4853515625 0
  endloop
endfacet
facet normal 0 0 -1
  outer loop
    vertex -2368.679443359375 -11469.4853515625 0
    vertex 1631.320434570313 -8469.4853515625 0
    vertex 1631.320434570313 -11469.4853515625 0
  endloop
endfacet
facet normal -1 0 0
  outer loop
    vertex -2368.679443359375 -8469.4853515625 3250
    vertex -2368.679443359375 -11469.4853515625 0
    vertex -2368.679443359375 -11469.4853515625 3250
  endloop
endfacet
facet normal -1 0 0
  outer loop
    vertex -2368.679443359375 -11469.4853515625 0
    vertex -2368.679443359375 -8469.4853515625 3250
    vertex -2368.679443359375 -8469.4853515625 0
  endloop
endfacet
facet normal 1 0 0
  outer loop
    vertex 1631.320434570313 -8469.4853515625 0
    vertex 1631.320434570313 -11469.4853515625 3250
    vertex 1631.320434570313 -11469.4853515625 0
  endloop
endfacet
facet normal 1 0 0
  outer loop
    vertex 1631.320434570313 -11469.4853515625 3250
    vertex 1631.320434570313 -8469.4853515625 0
    vertex 1631.320434570313 -8469.4853515625 3250
  endloop
endfacet
facet normal 0 1 0
  outer loop
    vertex -2368.679443359375 -8469.4853515625 3250
    vertex 1631.320434570313 -8469.4853515625 0
    vertex -2368.679443359375 -8469.4853515625 0
  endloop
endfacet
facet normal 0 1 0
  outer loop
    vertex 1631.320434570313 -8469.4853515625 0
    vertex -2368.679443359375 -8469.4853515625 3250
    vertex 1631.320434570313 -8469.4853515625 3250
  endloop
endfacet
facet normal 0 0 1
  outer loop
    vertex 1631.320434570313 -11469.4853515625 3250
    vertex -2368.679443359375 -8469.4853515625 3250
    vertex -2368.679443359375 -11469.4853515625 3250
  endloop
endfacet
facet normal 0 0 1
  outer loop
    vertex -2368.679443359375 -8469.4853515625 3250
    vertex 1631.320434570313 -11469.4853515625 3250
    vertex 1631.320434570313 -8469.4853515625 3250
  endloop
endfacet
endsolid 1511
