solid D36
facet normal 0 0 -1
  outer loop
    vertex 1631.320434570313 1525.51416015625 0
    vertex -2368.679443359375 -1474.48583984375 0
    vertex -2368.679443359375 1525.51416015625 0
  endloop
endfacet
facet normal 0 0 -1
  outer loop
    vertex -2368.679443359375 -1474.48583984375 0
    vertex 1631.320434570313 1525.51416015625 0
    vertex 1631.320434570313 -1474.48583984375 0
  endloop
endfacet
facet normal 0 0 1
  outer loop
    vertex 1631.320434570313 -1474.48583984375 250
    vertex -2368.679443359375 1525.51416015625 250
    vertex -2368.679443359375 -1474.48583984375 250
  endloop
endfacet
facet normal 0 0 1
  outer loop
    vertex -2368.679443359375 1525.51416015625 250
    vertex 1631.320434570313 -1474.48583984375 250
    vertex 1631.320434570313 1525.51416015625 250
  endloop
endfacet
facet normal -0 -1 -0
  outer loop
    vertex 1631.320434570313 -1474.48583984375 250
    vertex -2368.679443359375 -1474.48583984375 0
    vertex 1631.320434570313 -1474.48583984375 0
  endloop
endfacet
facet normal -0 -1 -0
  outer loop
    vertex -2368.679443359375 -1474.48583984375 0
    vertex 1631.320434570313 -1474.48583984375 250
    vertex -2368.679443359375 -1474.48583984375 250
  endloop
endfacet
facet normal -1 0 0
  outer loop
    vertex -2368.679443359375 1525.51416015625 250
    vertex -2368.679443359375 -1474.48583984375 0
    vertex -2368.679443359375 -1474.48583984375 250
  endloop
endfacet
facet normal -1 0 0
  outer loop
    vertex -2368.679443359375 -1474.48583984375 0
    vertex -2368.679443359375 1525.51416015625 250
    vertex -2368.679443359375 1525.51416015625 0
  endloop
endfacet
facet normal 0 1 0
  outer loop
    vertex -2368.679443359375 1525.51416015625 250
    vertex 1631.320434570313 1525.51416015625 0
    vertex -2368.679443359375 1525.51416015625 0
  endloop
endfacet
facet normal 0 1 0
  outer loop
    vertex 1631.320434570313 1525.51416015625 0
    vertex -2368.679443359375 1525.51416015625 250
    vertex 1631.320434570313 1525.51416015625 250
  endloop
endfacet
facet normal 1 0 0
  outer loop
    vertex 1631.320434570313 1525.51416015625 0
    vertex 1631.320434570313 -1474.48583984375 250
    vertex 1631.320434570313 -1474.48583984375 0
  endloop
endfacet
facet normal 1 0 0
  outer loop
    vertex 1631.320434570313 -1474.48583984375 250
    vertex 1631.320434570313 1525.51416015625 0
    vertex 1631.320434570313 1525.51416015625 250
  endloop
endfacet
endsolid D36
